<?xml version="1.0" standalone="no"?>
<!DOCTYPE svg PUBLIC "-//W3C//DTD SVG 1.1//EN"
    "http://www.w3.org/Graphics/SVG/1.1/DTD/svg11.dtd">
<svg height="500" width="500" style="fill:blue" transform="translate(250,250) rotate(-36)"
    version="1.1" xmlns="http://www.w3.org/2000/svg">
<polygon points="500.000,318.364 497.967,312.109 491.390,312.109 489.357,318.364 494.678,322.231 "/>
<polygon points="496.711,308.242 494.678,301.986 488.101,301.986 486.068,308.242 491.390,312.109 "/>
<polygon points="486.068,308.242 484.035,301.986 477.458,301.986 475.425,308.242 480.746,312.109 "/>
<polygon points="482.779,318.364 480.746,312.109 474.169,312.109 472.136,318.364 477.458,322.231 "/>
<polygon points="491.390,324.620 489.357,318.364 482.779,318.364 480.746,324.620 486.068,328.487 "/>
<polygon points="491.390,291.864 489.357,285.608 482.779,285.608 480.746,291.864 486.068,295.730 "/>
<polygon points="488.101,281.742 486.068,275.486 479.490,275.486 477.458,281.742 482.779,285.608 "/>
<polygon points="477.458,281.742 475.425,275.486 468.847,275.486 466.814,281.742 472.136,285.608 "/>
<polygon points="474.169,291.864 472.136,285.608 465.558,285.608 463.525,291.864 468.847,295.730 "/>
<polygon points="482.779,298.120 480.746,291.864 474.169,291.864 472.136,298.120 477.458,301.986 "/>
<polygon points="463.525,291.864 461.493,285.608 454.915,285.608 452.882,291.864 458.204,295.730 "/>
<polygon points="460.237,281.742 458.204,275.486 451.626,275.486 449.593,281.742 454.915,285.608 "/>
<polygon points="449.593,281.742 447.561,275.486 440.983,275.486 438.950,281.742 444.272,285.608 "/>
<polygon points="446.305,291.864 444.272,285.608 437.694,285.608 435.661,291.864 440.983,295.730 "/>
<polygon points="454.915,298.120 452.882,291.864 446.305,291.864 444.272,298.120 449.593,301.986 "/>
<polygon points="454.915,318.364 452.882,312.109 446.305,312.109 444.272,318.364 449.593,322.231 "/>
<polygon points="451.626,308.242 449.593,301.986 443.016,301.986 440.983,308.242 446.305,312.109 "/>
<polygon points="440.983,308.242 438.950,301.986 432.373,301.986 430.340,308.242 435.661,312.109 "/>
<polygon points="437.694,318.364 435.661,312.109 429.084,312.109 427.051,318.364 432.373,322.231 "/>
<polygon points="446.305,324.620 444.272,318.364 437.694,318.364 435.661,324.620 440.983,328.487 "/>
<polygon points="477.458,334.742 475.425,328.487 468.847,328.487 466.814,334.742 472.136,338.609 "/>
<polygon points="474.169,324.620 472.136,318.364 465.558,318.364 463.525,324.620 468.847,328.487 "/>
<polygon points="463.525,324.620 461.493,318.364 454.915,318.364 452.882,324.620 458.204,328.487 "/>
<polygon points="460.237,334.742 458.204,328.487 451.626,328.487 449.593,334.742 454.915,338.609 "/>
<polygon points="468.847,340.998 466.814,334.742 460.237,334.742 458.204,340.998 463.525,344.865 "/>
<polygon points="477.458,248.986 475.425,242.730 468.847,242.730 466.814,248.986 472.136,252.852 "/>
<polygon points="474.169,238.864 472.136,232.608 465.558,232.608 463.525,238.864 468.847,242.730 "/>
<polygon points="463.525,238.864 461.493,232.608 454.915,232.608 452.882,238.864 458.204,242.730 "/>
<polygon points="460.237,248.986 458.204,242.730 451.626,242.730 449.593,248.986 454.915,252.852 "/>
<polygon points="468.847,255.242 466.814,248.986 460.237,248.986 458.204,255.242 463.525,259.108 "/>
<polygon points="468.847,222.485 466.814,216.230 460.237,216.230 458.204,222.485 463.525,226.352 "/>
<polygon points="465.558,212.363 463.525,206.107 456.948,206.107 454.915,212.363 460.237,216.230 "/>
<polygon points="454.915,212.363 452.882,206.107 446.305,206.107 444.272,212.363 449.593,216.230 "/>
<polygon points="451.626,222.485 449.593,216.230 443.016,216.230 440.983,222.485 446.305,226.352 "/>
<polygon points="460.237,228.741 458.204,222.485 451.626,222.485 449.593,228.741 454.915,232.608 "/>
<polygon points="440.983,222.485 438.950,216.230 432.373,216.230 430.340,222.485 435.661,226.352 "/>
<polygon points="437.694,212.363 435.661,206.107 429.084,206.107 427.051,212.363 432.373,216.230 "/>
<polygon points="427.051,212.363 425.018,206.107 418.441,206.107 416.408,212.363 421.729,216.230 "/>
<polygon points="423.762,222.485 421.729,216.230 415.152,216.230 413.119,222.485 418.441,226.352 "/>
<polygon points="432.373,228.741 430.340,222.485 423.762,222.485 421.729,228.741 427.051,232.608 "/>
<polygon points="432.373,248.986 430.340,242.730 423.762,242.730 421.729,248.986 427.051,252.852 "/>
<polygon points="429.084,238.864 427.051,232.608 420.473,232.608 418.441,238.864 423.762,242.730 "/>
<polygon points="418.441,238.864 416.408,232.608 409.830,232.608 407.797,238.864 413.119,242.730 "/>
<polygon points="415.152,248.986 413.119,242.730 406.541,242.730 404.508,248.986 409.830,252.852 "/>
<polygon points="423.762,255.242 421.729,248.986 415.152,248.986 413.119,255.242 418.441,259.108 "/>
<polygon points="454.915,265.364 452.882,259.108 446.305,259.108 444.272,265.364 449.593,269.230 "/>
<polygon points="451.626,255.242 449.593,248.986 443.016,248.986 440.983,255.242 446.305,259.108 "/>
<polygon points="440.983,255.242 438.950,248.986 432.373,248.986 430.340,255.242 435.661,259.108 "/>
<polygon points="437.694,265.364 435.661,259.108 429.084,259.108 427.051,265.364 432.373,269.230 "/>
<polygon points="446.305,271.620 444.272,265.364 437.694,265.364 435.661,271.620 440.983,275.486 "/>
<polygon points="404.508,248.986 402.476,242.730 395.898,242.730 393.865,248.986 399.187,252.852 "/>
<polygon points="401.220,238.864 399.187,232.608 392.609,232.608 390.576,238.864 395.898,242.730 "/>
<polygon points="390.576,238.864 388.544,232.608 381.966,232.608 379.933,238.864 385.255,242.730 "/>
<polygon points="387.288,248.986 385.255,242.730 378.677,242.730 376.644,248.986 381.966,252.852 "/>
<polygon points="395.898,255.242 393.865,248.986 387.288,248.986 385.255,255.242 390.576,259.108 "/>
<polygon points="395.898,222.485 393.865,216.230 387.288,216.230 385.255,222.485 390.576,226.352 "/>
<polygon points="392.609,212.363 390.576,206.107 383.999,206.107 381.966,212.363 387.288,216.230 "/>
<polygon points="381.966,212.363 379.933,206.107 373.356,206.107 371.323,212.363 376.644,216.230 "/>
<polygon points="378.677,222.485 376.644,216.230 370.067,216.230 368.034,222.485 373.356,226.352 "/>
<polygon points="387.288,228.741 385.255,222.485 378.677,222.485 376.644,228.741 381.966,232.608 "/>
<polygon points="368.034,222.485 366.001,216.230 359.424,216.230 357.391,222.485 362.712,226.352 "/>
<polygon points="364.745,212.363 362.712,206.107 356.135,206.107 354.102,212.363 359.424,216.230 "/>
<polygon points="354.102,212.363 352.069,206.107 345.492,206.107 343.459,212.363 348.780,216.230 "/>
<polygon points="350.813,222.485 348.780,216.230 342.203,216.230 340.170,222.485 345.492,226.352 "/>
<polygon points="359.424,228.741 357.391,222.485 350.813,222.485 348.780,228.741 354.102,232.608 "/>
<polygon points="359.424,248.986 357.391,242.730 350.813,242.730 348.780,248.986 354.102,252.852 "/>
<polygon points="356.135,238.864 354.102,232.608 347.524,232.608 345.492,238.864 350.813,242.730 "/>
<polygon points="345.492,238.864 343.459,232.608 336.881,232.608 334.848,238.864 340.170,242.730 "/>
<polygon points="342.203,248.986 340.170,242.730 333.592,242.730 331.559,248.986 336.881,252.852 "/>
<polygon points="350.813,255.242 348.780,248.986 342.203,248.986 340.170,255.242 345.492,259.108 "/>
<polygon points="381.966,265.364 379.933,259.108 373.356,259.108 371.323,265.364 376.644,269.230 "/>
<polygon points="378.677,255.242 376.644,248.986 370.067,248.986 368.034,255.242 373.356,259.108 "/>
<polygon points="368.034,255.242 366.001,248.986 359.424,248.986 357.391,255.242 362.712,259.108 "/>
<polygon points="364.745,265.364 362.712,259.108 356.135,259.108 354.102,265.364 359.424,269.230 "/>
<polygon points="373.356,271.620 371.323,265.364 364.745,265.364 362.712,271.620 368.034,275.486 "/>
<polygon points="381.966,318.364 379.933,312.109 373.356,312.109 371.323,318.364 376.644,322.231 "/>
<polygon points="378.677,308.242 376.644,301.986 370.067,301.986 368.034,308.242 373.356,312.109 "/>
<polygon points="368.034,308.242 366.001,301.986 359.424,301.986 357.391,308.242 362.712,312.109 "/>
<polygon points="364.745,318.364 362.712,312.109 356.135,312.109 354.102,318.364 359.424,322.231 "/>
<polygon points="373.356,324.620 371.323,318.364 364.745,318.364 362.712,324.620 368.034,328.487 "/>
<polygon points="373.356,291.864 371.323,285.608 364.745,285.608 362.712,291.864 368.034,295.730 "/>
<polygon points="370.067,281.742 368.034,275.486 361.456,275.486 359.424,281.742 364.745,285.608 "/>
<polygon points="359.424,281.742 357.391,275.486 350.813,275.486 348.780,281.742 354.102,285.608 "/>
<polygon points="356.135,291.864 354.102,285.608 347.524,285.608 345.492,291.864 350.813,295.730 "/>
<polygon points="364.745,298.120 362.712,291.864 356.135,291.864 354.102,298.120 359.424,301.986 "/>
<polygon points="345.492,291.864 343.459,285.608 336.881,285.608 334.848,291.864 340.170,295.730 "/>
<polygon points="342.203,281.742 340.170,275.486 333.592,275.486 331.559,281.742 336.881,285.608 "/>
<polygon points="331.559,281.742 329.527,275.486 322.949,275.486 320.916,281.742 326.238,285.608 "/>
<polygon points="328.271,291.864 326.238,285.608 319.660,285.608 317.627,291.864 322.949,295.730 "/>
<polygon points="336.881,298.120 334.848,291.864 328.271,291.864 326.238,298.120 331.559,301.986 "/>
<polygon points="336.881,318.364 334.848,312.109 328.271,312.109 326.238,318.364 331.559,322.231 "/>
<polygon points="333.592,308.242 331.559,301.986 324.982,301.986 322.949,308.242 328.271,312.109 "/>
<polygon points="322.949,308.242 320.916,301.986 314.339,301.986 312.306,308.242 317.627,312.109 "/>
<polygon points="319.660,318.364 317.627,312.109 311.050,312.109 309.017,318.364 314.339,322.231 "/>
<polygon points="328.271,324.620 326.238,318.364 319.660,318.364 317.627,324.620 322.949,328.487 "/>
<polygon points="359.424,334.742 357.391,328.487 350.813,328.487 348.780,334.742 354.102,338.609 "/>
<polygon points="356.135,324.620 354.102,318.364 347.524,318.364 345.492,324.620 350.813,328.487 "/>
<polygon points="345.492,324.620 343.459,318.364 336.881,318.364 334.848,324.620 340.170,328.487 "/>
<polygon points="342.203,334.742 340.170,328.487 333.592,328.487 331.559,334.742 336.881,338.609 "/>
<polygon points="350.813,340.998 348.780,334.742 342.203,334.742 340.170,340.998 345.492,344.865 "/>
<polygon points="440.983,361.243 438.950,354.987 432.373,354.987 430.340,361.243 435.661,365.109 "/>
<polygon points="437.694,351.121 435.661,344.865 429.084,344.865 427.051,351.121 432.373,354.987 "/>
<polygon points="427.051,351.121 425.018,344.865 418.441,344.865 416.408,351.121 421.729,354.987 "/>
<polygon points="423.762,361.243 421.729,354.987 415.152,354.987 413.119,361.243 418.441,365.109 "/>
<polygon points="432.373,367.499 430.340,361.243 423.762,361.243 421.729,367.499 427.051,371.365 "/>
<polygon points="432.373,334.742 430.340,328.487 423.762,328.487 421.729,334.742 427.051,338.609 "/>
<polygon points="429.084,324.620 427.051,318.364 420.473,318.364 418.441,324.620 423.762,328.487 "/>
<polygon points="418.441,324.620 416.408,318.364 409.830,318.364 407.797,324.620 413.119,328.487 "/>
<polygon points="415.152,334.742 413.119,328.487 406.541,328.487 404.508,334.742 409.830,338.609 "/>
<polygon points="423.762,340.998 421.729,334.742 415.152,334.742 413.119,340.998 418.441,344.865 "/>
<polygon points="404.508,334.742 402.476,328.487 395.898,328.487 393.865,334.742 399.187,338.609 "/>
<polygon points="401.220,324.620 399.187,318.364 392.609,318.364 390.576,324.620 395.898,328.487 "/>
<polygon points="390.576,324.620 388.544,318.364 381.966,318.364 379.933,324.620 385.255,328.487 "/>
<polygon points="387.288,334.742 385.255,328.487 378.677,328.487 376.644,334.742 381.966,338.609 "/>
<polygon points="395.898,340.998 393.865,334.742 387.288,334.742 385.255,340.998 390.576,344.865 "/>
<polygon points="395.898,361.243 393.865,354.987 387.288,354.987 385.255,361.243 390.576,365.109 "/>
<polygon points="392.609,351.121 390.576,344.865 383.999,344.865 381.966,351.121 387.288,354.987 "/>
<polygon points="381.966,351.121 379.933,344.865 373.356,344.865 371.323,351.121 376.644,354.987 "/>
<polygon points="378.677,361.243 376.644,354.987 370.067,354.987 368.034,361.243 373.356,365.109 "/>
<polygon points="387.288,367.499 385.255,361.243 378.677,361.243 376.644,367.499 381.966,371.365 "/>
<polygon points="418.441,377.621 416.408,371.365 409.830,371.365 407.797,377.621 413.119,381.487 "/>
<polygon points="415.152,367.499 413.119,361.243 406.541,361.243 404.508,367.499 409.830,371.365 "/>
<polygon points="404.508,367.499 402.476,361.243 395.898,361.243 393.865,367.499 399.187,371.365 "/>
<polygon points="401.220,377.621 399.187,371.365 392.609,371.365 390.576,377.621 395.898,381.487 "/>
<polygon points="409.830,383.877 407.797,377.621 401.220,377.621 399.187,383.877 404.508,387.743 "/>
<polygon points="440.983,136.729 438.950,130.473 432.373,130.473 430.340,136.729 435.661,140.595 "/>
<polygon points="437.694,126.607 435.661,120.351 429.084,120.351 427.051,126.607 432.373,130.473 "/>
<polygon points="427.051,126.607 425.018,120.351 418.441,120.351 416.408,126.607 421.729,130.473 "/>
<polygon points="423.762,136.729 421.729,130.473 415.152,130.473 413.119,136.729 418.441,140.595 "/>
<polygon points="432.373,142.985 430.340,136.729 423.762,136.729 421.729,142.985 427.051,146.851 "/>
<polygon points="432.373,110.228 430.340,103.973 423.762,103.973 421.729,110.228 427.051,114.095 "/>
<polygon points="429.084,100.106 427.051,93.850 420.473,93.850 418.441,100.106 423.762,103.973 "/>
<polygon points="418.441,100.106 416.408,93.850 409.830,93.850 407.797,100.106 413.119,103.973 "/>
<polygon points="415.152,110.228 413.119,103.973 406.541,103.973 404.508,110.228 409.830,114.095 "/>
<polygon points="423.762,116.484 421.729,110.228 415.152,110.228 413.119,116.484 418.441,120.351 "/>
<polygon points="404.508,110.228 402.476,103.973 395.898,103.973 393.865,110.228 399.187,114.095 "/>
<polygon points="401.220,100.106 399.187,93.850 392.609,93.850 390.576,100.106 395.898,103.973 "/>
<polygon points="390.576,100.106 388.544,93.850 381.966,93.850 379.933,100.106 385.255,103.973 "/>
<polygon points="387.288,110.228 385.255,103.973 378.677,103.973 376.644,110.228 381.966,114.095 "/>
<polygon points="395.898,116.484 393.865,110.228 387.288,110.228 385.255,116.484 390.576,120.351 "/>
<polygon points="395.898,136.729 393.865,130.473 387.288,130.473 385.255,136.729 390.576,140.595 "/>
<polygon points="392.609,126.607 390.576,120.351 383.999,120.351 381.966,126.607 387.288,130.473 "/>
<polygon points="381.966,126.607 379.933,120.351 373.356,120.351 371.323,126.607 376.644,130.473 "/>
<polygon points="378.677,136.729 376.644,130.473 370.067,130.473 368.034,136.729 373.356,140.595 "/>
<polygon points="387.288,142.985 385.255,136.729 378.677,136.729 376.644,142.985 381.966,146.851 "/>
<polygon points="418.441,153.107 416.408,146.851 409.830,146.851 407.797,153.107 413.119,156.973 "/>
<polygon points="415.152,142.985 413.119,136.729 406.541,136.729 404.508,142.985 409.830,146.851 "/>
<polygon points="404.508,142.985 402.476,136.729 395.898,136.729 393.865,142.985 399.187,146.851 "/>
<polygon points="401.220,153.107 399.187,146.851 392.609,146.851 390.576,153.107 395.898,156.973 "/>
<polygon points="409.830,159.363 407.797,153.107 401.220,153.107 399.187,159.363 404.508,163.229 "/>
<polygon points="418.441,67.350 416.408,61.094 409.830,61.094 407.797,67.350 413.119,71.216 "/>
<polygon points="415.152,57.228 413.119,50.972 406.541,50.972 404.508,57.228 409.830,61.094 "/>
<polygon points="404.508,57.228 402.476,50.972 395.898,50.972 393.865,57.228 399.187,61.094 "/>
<polygon points="401.220,67.350 399.187,61.094 392.609,61.094 390.576,67.350 395.898,71.216 "/>
<polygon points="409.830,73.606 407.797,67.350 401.220,67.350 399.187,73.606 404.508,77.472 "/>
<polygon points="409.830,40.850 407.797,34.594 401.220,34.594 399.187,40.850 404.508,44.716 "/>
<polygon points="406.541,30.728 404.508,24.472 397.931,24.472 395.898,30.728 401.220,34.594 "/>
<polygon points="395.898,30.728 393.865,24.472 387.288,24.472 385.255,30.728 390.576,34.594 "/>
<polygon points="392.609,40.850 390.576,34.594 383.999,34.594 381.966,40.850 387.288,44.716 "/>
<polygon points="401.220,47.106 399.187,40.850 392.609,40.850 390.576,47.106 395.898,50.972 "/>
<polygon points="381.966,40.850 379.933,34.594 373.356,34.594 371.323,40.850 376.644,44.716 "/>
<polygon points="378.677,30.728 376.644,24.472 370.067,24.472 368.034,30.728 373.356,34.594 "/>
<polygon points="368.034,30.728 366.001,24.472 359.424,24.472 357.391,30.728 362.712,34.594 "/>
<polygon points="364.745,40.850 362.712,34.594 356.135,34.594 354.102,40.850 359.424,44.716 "/>
<polygon points="373.356,47.106 371.323,40.850 364.745,40.850 362.712,47.106 368.034,50.972 "/>
<polygon points="373.356,67.350 371.323,61.094 364.745,61.094 362.712,67.350 368.034,71.216 "/>
<polygon points="370.067,57.228 368.034,50.972 361.456,50.972 359.424,57.228 364.745,61.094 "/>
<polygon points="359.424,57.228 357.391,50.972 350.813,50.972 348.780,57.228 354.102,61.094 "/>
<polygon points="356.135,67.350 354.102,61.094 347.524,61.094 345.492,67.350 350.813,71.216 "/>
<polygon points="364.745,73.606 362.712,67.350 356.135,67.350 354.102,73.606 359.424,77.472 "/>
<polygon points="395.898,83.728 393.865,77.472 387.288,77.472 385.255,83.728 390.576,87.595 "/>
<polygon points="392.609,73.606 390.576,67.350 383.999,67.350 381.966,73.606 387.288,77.472 "/>
<polygon points="381.966,73.606 379.933,67.350 373.356,67.350 371.323,73.606 376.644,77.472 "/>
<polygon points="378.677,83.728 376.644,77.472 370.067,77.472 368.034,83.728 373.356,87.595 "/>
<polygon points="387.288,89.984 385.255,83.728 378.677,83.728 376.644,89.984 381.966,93.850 "/>
<polygon points="345.492,67.350 343.459,61.094 336.881,61.094 334.848,67.350 340.170,71.216 "/>
<polygon points="342.203,57.228 340.170,50.972 333.592,50.972 331.559,57.228 336.881,61.094 "/>
<polygon points="331.559,57.228 329.527,50.972 322.949,50.972 320.916,57.228 326.238,61.094 "/>
<polygon points="328.271,67.350 326.238,61.094 319.660,61.094 317.627,67.350 322.949,71.216 "/>
<polygon points="336.881,73.606 334.848,67.350 328.271,67.350 326.238,73.606 331.559,77.472 "/>
<polygon points="336.881,40.850 334.848,34.594 328.271,34.594 326.238,40.850 331.559,44.716 "/>
<polygon points="333.592,30.728 331.559,24.472 324.982,24.472 322.949,30.728 328.271,34.594 "/>
<polygon points="322.949,30.728 320.916,24.472 314.339,24.472 312.306,30.728 317.627,34.594 "/>
<polygon points="319.660,40.850 317.627,34.594 311.050,34.594 309.017,40.850 314.339,44.716 "/>
<polygon points="328.271,47.106 326.238,40.850 319.660,40.850 317.627,47.106 322.949,50.972 "/>
<polygon points="309.017,40.850 306.984,34.594 300.407,34.594 298.374,40.850 303.695,44.716 "/>
<polygon points="305.728,30.728 303.695,24.472 297.118,24.472 295.085,30.728 300.407,34.594 "/>
<polygon points="295.085,30.728 293.052,24.472 286.475,24.472 284.442,30.728 289.763,34.594 "/>
<polygon points="291.796,40.850 289.763,34.594 283.186,34.594 281.153,40.850 286.475,44.716 "/>
<polygon points="300.407,47.106 298.374,40.850 291.796,40.850 289.763,47.106 295.085,50.972 "/>
<polygon points="300.407,67.350 298.374,61.094 291.796,61.094 289.763,67.350 295.085,71.216 "/>
<polygon points="297.118,57.228 295.085,50.972 288.507,50.972 286.475,57.228 291.796,61.094 "/>
<polygon points="286.475,57.228 284.442,50.972 277.864,50.972 275.831,57.228 281.153,61.094 "/>
<polygon points="283.186,67.350 281.153,61.094 274.575,61.094 272.542,67.350 277.864,71.216 "/>
<polygon points="291.796,73.606 289.763,67.350 283.186,67.350 281.153,73.606 286.475,77.472 "/>
<polygon points="322.949,83.728 320.916,77.472 314.339,77.472 312.306,83.728 317.627,87.595 "/>
<polygon points="319.660,73.606 317.627,67.350 311.050,67.350 309.017,73.606 314.339,77.472 "/>
<polygon points="309.017,73.606 306.984,67.350 300.407,67.350 298.374,73.606 303.695,77.472 "/>
<polygon points="305.728,83.728 303.695,77.472 297.118,77.472 295.085,83.728 300.407,87.595 "/>
<polygon points="314.339,89.984 312.306,83.728 305.728,83.728 303.695,89.984 309.017,93.850 "/>
<polygon points="322.949,136.729 320.916,130.473 314.339,130.473 312.306,136.729 317.627,140.595 "/>
<polygon points="319.660,126.607 317.627,120.351 311.050,120.351 309.017,126.607 314.339,130.473 "/>
<polygon points="309.017,126.607 306.984,120.351 300.407,120.351 298.374,126.607 303.695,130.473 "/>
<polygon points="305.728,136.729 303.695,130.473 297.118,130.473 295.085,136.729 300.407,140.595 "/>
<polygon points="314.339,142.985 312.306,136.729 305.728,136.729 303.695,142.985 309.017,146.851 "/>
<polygon points="314.339,110.228 312.306,103.973 305.728,103.973 303.695,110.228 309.017,114.095 "/>
<polygon points="311.050,100.106 309.017,93.850 302.439,93.850 300.407,100.106 305.728,103.973 "/>
<polygon points="300.407,100.106 298.374,93.850 291.796,93.850 289.763,100.106 295.085,103.973 "/>
<polygon points="297.118,110.228 295.085,103.973 288.507,103.973 286.475,110.228 291.796,114.095 "/>
<polygon points="305.728,116.484 303.695,110.228 297.118,110.228 295.085,116.484 300.407,120.351 "/>
<polygon points="286.475,110.228 284.442,103.973 277.864,103.973 275.831,110.228 281.153,114.095 "/>
<polygon points="283.186,100.106 281.153,93.850 274.575,93.850 272.542,100.106 277.864,103.973 "/>
<polygon points="272.542,100.106 270.510,93.850 263.932,93.850 261.899,100.106 267.221,103.973 "/>
<polygon points="269.254,110.228 267.221,103.973 260.643,103.973 258.610,110.228 263.932,114.095 "/>
<polygon points="277.864,116.484 275.831,110.228 269.254,110.228 267.221,116.484 272.542,120.351 "/>
<polygon points="277.864,136.729 275.831,130.473 269.254,130.473 267.221,136.729 272.542,140.595 "/>
<polygon points="274.575,126.607 272.542,120.351 265.965,120.351 263.932,126.607 269.254,130.473 "/>
<polygon points="263.932,126.607 261.899,120.351 255.322,120.351 253.289,126.607 258.610,130.473 "/>
<polygon points="260.643,136.729 258.610,130.473 252.033,130.473 250.000,136.729 255.322,140.595 "/>
<polygon points="269.254,142.985 267.221,136.729 260.643,136.729 258.610,142.985 263.932,146.851 "/>
<polygon points="300.407,153.107 298.374,146.851 291.796,146.851 289.763,153.107 295.085,156.973 "/>
<polygon points="297.118,142.985 295.085,136.729 288.507,136.729 286.475,142.985 291.796,146.851 "/>
<polygon points="286.475,142.985 284.442,136.729 277.864,136.729 275.831,142.985 281.153,146.851 "/>
<polygon points="283.186,153.107 281.153,146.851 274.575,146.851 272.542,153.107 277.864,156.973 "/>
<polygon points="291.796,159.363 289.763,153.107 283.186,153.107 281.153,159.363 286.475,163.229 "/>
<polygon points="381.966,179.607 379.933,173.351 373.356,173.351 371.323,179.607 376.644,183.473 "/>
<polygon points="378.677,169.485 376.644,163.229 370.067,163.229 368.034,169.485 373.356,173.351 "/>
<polygon points="368.034,169.485 366.001,163.229 359.424,163.229 357.391,169.485 362.712,173.351 "/>
<polygon points="364.745,179.607 362.712,173.351 356.135,173.351 354.102,179.607 359.424,183.473 "/>
<polygon points="373.356,185.863 371.323,179.607 364.745,179.607 362.712,185.863 368.034,189.729 "/>
<polygon points="373.356,153.107 371.323,146.851 364.745,146.851 362.712,153.107 368.034,156.973 "/>
<polygon points="370.067,142.985 368.034,136.729 361.456,136.729 359.424,142.985 364.745,146.851 "/>
<polygon points="359.424,142.985 357.391,136.729 350.813,136.729 348.780,142.985 354.102,146.851 "/>
<polygon points="356.135,153.107 354.102,146.851 347.524,146.851 345.492,153.107 350.813,156.973 "/>
<polygon points="364.745,159.363 362.712,153.107 356.135,153.107 354.102,159.363 359.424,163.229 "/>
<polygon points="345.492,153.107 343.459,146.851 336.881,146.851 334.848,153.107 340.170,156.973 "/>
<polygon points="342.203,142.985 340.170,136.729 333.592,136.729 331.559,142.985 336.881,146.851 "/>
<polygon points="331.559,142.985 329.527,136.729 322.949,136.729 320.916,142.985 326.238,146.851 "/>
<polygon points="328.271,153.107 326.238,146.851 319.660,146.851 317.627,153.107 322.949,156.973 "/>
<polygon points="336.881,159.363 334.848,153.107 328.271,153.107 326.238,159.363 331.559,163.229 "/>
<polygon points="336.881,179.607 334.848,173.351 328.271,173.351 326.238,179.607 331.559,183.473 "/>
<polygon points="333.592,169.485 331.559,163.229 324.982,163.229 322.949,169.485 328.271,173.351 "/>
<polygon points="322.949,169.485 320.916,163.229 314.339,163.229 312.306,169.485 317.627,173.351 "/>
<polygon points="319.660,179.607 317.627,173.351 311.050,173.351 309.017,179.607 314.339,183.473 "/>
<polygon points="328.271,185.863 326.238,179.607 319.660,179.607 317.627,185.863 322.949,189.729 "/>
<polygon points="359.424,195.985 357.391,189.729 350.813,189.729 348.780,195.985 354.102,199.852 "/>
<polygon points="356.135,185.863 354.102,179.607 347.524,179.607 345.492,185.863 350.813,189.729 "/>
<polygon points="345.492,185.863 343.459,179.607 336.881,179.607 334.848,185.863 340.170,189.729 "/>
<polygon points="342.203,195.985 340.170,189.729 333.592,189.729 331.559,195.985 336.881,199.852 "/>
<polygon points="350.813,202.241 348.780,195.985 342.203,195.985 340.170,202.241 345.492,206.107 "/>
<polygon points="250.000,136.729 247.967,130.473 241.390,130.473 239.357,136.729 244.678,140.595 "/>
<polygon points="246.711,126.607 244.678,120.351 238.101,120.351 236.068,126.607 241.390,130.473 "/>
<polygon points="236.068,126.607 234.035,120.351 227.458,120.351 225.425,126.607 230.746,130.473 "/>
<polygon points="232.779,136.729 230.746,130.473 224.169,130.473 222.136,136.729 227.458,140.595 "/>
<polygon points="241.390,142.985 239.357,136.729 232.779,136.729 230.746,142.985 236.068,146.851 "/>
<polygon points="241.390,110.228 239.357,103.973 232.779,103.973 230.746,110.228 236.068,114.095 "/>
<polygon points="238.101,100.106 236.068,93.850 229.490,93.850 227.458,100.106 232.779,103.973 "/>
<polygon points="227.458,100.106 225.425,93.850 218.847,93.850 216.814,100.106 222.136,103.973 "/>
<polygon points="224.169,110.228 222.136,103.973 215.558,103.973 213.525,110.228 218.847,114.095 "/>
<polygon points="232.779,116.484 230.746,110.228 224.169,110.228 222.136,116.484 227.458,120.351 "/>
<polygon points="213.525,110.228 211.493,103.973 204.915,103.973 202.882,110.228 208.204,114.095 "/>
<polygon points="210.237,100.106 208.204,93.850 201.626,93.850 199.593,100.106 204.915,103.973 "/>
<polygon points="199.593,100.106 197.561,93.850 190.983,93.850 188.950,100.106 194.272,103.973 "/>
<polygon points="196.305,110.228 194.272,103.973 187.694,103.973 185.661,110.228 190.983,114.095 "/>
<polygon points="204.915,116.484 202.882,110.228 196.305,110.228 194.272,116.484 199.593,120.351 "/>
<polygon points="204.915,136.729 202.882,130.473 196.305,130.473 194.272,136.729 199.593,140.595 "/>
<polygon points="201.626,126.607 199.593,120.351 193.016,120.351 190.983,126.607 196.305,130.473 "/>
<polygon points="190.983,126.607 188.950,120.351 182.373,120.351 180.340,126.607 185.661,130.473 "/>
<polygon points="187.694,136.729 185.661,130.473 179.084,130.473 177.051,136.729 182.373,140.595 "/>
<polygon points="196.305,142.985 194.272,136.729 187.694,136.729 185.661,142.985 190.983,146.851 "/>
<polygon points="227.458,153.107 225.425,146.851 218.847,146.851 216.814,153.107 222.136,156.973 "/>
<polygon points="224.169,142.985 222.136,136.729 215.558,136.729 213.525,142.985 218.847,146.851 "/>
<polygon points="213.525,142.985 211.493,136.729 204.915,136.729 202.882,142.985 208.204,146.851 "/>
<polygon points="210.237,153.107 208.204,146.851 201.626,146.851 199.593,153.107 204.915,156.973 "/>
<polygon points="218.847,159.363 216.814,153.107 210.237,153.107 208.204,159.363 213.525,163.229 "/>
<polygon points="227.458,67.350 225.425,61.094 218.847,61.094 216.814,67.350 222.136,71.216 "/>
<polygon points="224.169,57.228 222.136,50.972 215.558,50.972 213.525,57.228 218.847,61.094 "/>
<polygon points="213.525,57.228 211.493,50.972 204.915,50.972 202.882,57.228 208.204,61.094 "/>
<polygon points="210.237,67.350 208.204,61.094 201.626,61.094 199.593,67.350 204.915,71.216 "/>
<polygon points="218.847,73.606 216.814,67.350 210.237,67.350 208.204,73.606 213.525,77.472 "/>
<polygon points="218.847,40.850 216.814,34.594 210.237,34.594 208.204,40.850 213.525,44.716 "/>
<polygon points="215.558,30.728 213.525,24.472 206.948,24.472 204.915,30.728 210.237,34.594 "/>
<polygon points="204.915,30.728 202.882,24.472 196.305,24.472 194.272,30.728 199.593,34.594 "/>
<polygon points="201.626,40.850 199.593,34.594 193.016,34.594 190.983,40.850 196.305,44.716 "/>
<polygon points="210.237,47.106 208.204,40.850 201.626,40.850 199.593,47.106 204.915,50.972 "/>
<polygon points="190.983,40.850 188.950,34.594 182.373,34.594 180.340,40.850 185.661,44.716 "/>
<polygon points="187.694,30.728 185.661,24.472 179.084,24.472 177.051,30.728 182.373,34.594 "/>
<polygon points="177.051,30.728 175.018,24.472 168.441,24.472 166.408,30.728 171.729,34.594 "/>
<polygon points="173.762,40.850 171.729,34.594 165.152,34.594 163.119,40.850 168.441,44.716 "/>
<polygon points="182.373,47.106 180.340,40.850 173.762,40.850 171.729,47.106 177.051,50.972 "/>
<polygon points="182.373,67.350 180.340,61.094 173.762,61.094 171.729,67.350 177.051,71.216 "/>
<polygon points="179.084,57.228 177.051,50.972 170.473,50.972 168.441,57.228 173.762,61.094 "/>
<polygon points="168.441,57.228 166.408,50.972 159.830,50.972 157.797,57.228 163.119,61.094 "/>
<polygon points="165.152,67.350 163.119,61.094 156.541,61.094 154.508,67.350 159.830,71.216 "/>
<polygon points="173.762,73.606 171.729,67.350 165.152,67.350 163.119,73.606 168.441,77.472 "/>
<polygon points="204.915,83.728 202.882,77.472 196.305,77.472 194.272,83.728 199.593,87.595 "/>
<polygon points="201.626,73.606 199.593,67.350 193.016,67.350 190.983,73.606 196.305,77.472 "/>
<polygon points="190.983,73.606 188.950,67.350 182.373,67.350 180.340,73.606 185.661,77.472 "/>
<polygon points="187.694,83.728 185.661,77.472 179.084,77.472 177.051,83.728 182.373,87.595 "/>
<polygon points="196.305,89.984 194.272,83.728 187.694,83.728 185.661,89.984 190.983,93.850 "/>
<polygon points="154.508,67.350 152.476,61.094 145.898,61.094 143.865,67.350 149.187,71.216 "/>
<polygon points="151.220,57.228 149.187,50.972 142.609,50.972 140.576,57.228 145.898,61.094 "/>
<polygon points="140.576,57.228 138.544,50.972 131.966,50.972 129.933,57.228 135.255,61.094 "/>
<polygon points="137.288,67.350 135.255,61.094 128.677,61.094 126.644,67.350 131.966,71.216 "/>
<polygon points="145.898,73.606 143.865,67.350 137.288,67.350 135.255,73.606 140.576,77.472 "/>
<polygon points="145.898,40.850 143.865,34.594 137.288,34.594 135.255,40.850 140.576,44.716 "/>
<polygon points="142.609,30.728 140.576,24.472 133.999,24.472 131.966,30.728 137.288,34.594 "/>
<polygon points="131.966,30.728 129.933,24.472 123.356,24.472 121.323,30.728 126.644,34.594 "/>
<polygon points="128.677,40.850 126.644,34.594 120.067,34.594 118.034,40.850 123.356,44.716 "/>
<polygon points="137.288,47.106 135.255,40.850 128.677,40.850 126.644,47.106 131.966,50.972 "/>
<polygon points="118.034,40.850 116.001,34.594 109.424,34.594 107.391,40.850 112.712,44.716 "/>
<polygon points="114.745,30.728 112.712,24.472 106.135,24.472 104.102,30.728 109.424,34.594 "/>
<polygon points="104.102,30.728 102.069,24.472 95.492,24.472 93.459,30.728 98.780,34.594 "/>
<polygon points="100.813,40.850 98.780,34.594 92.203,34.594 90.170,40.850 95.492,44.716 "/>
<polygon points="109.424,47.106 107.391,40.850 100.813,40.850 98.780,47.106 104.102,50.972 "/>
<polygon points="109.424,67.350 107.391,61.094 100.813,61.094 98.780,67.350 104.102,71.216 "/>
<polygon points="106.135,57.228 104.102,50.972 97.524,50.972 95.492,57.228 100.813,61.094 "/>
<polygon points="95.492,57.228 93.459,50.972 86.881,50.972 84.848,57.228 90.170,61.094 "/>
<polygon points="92.203,67.350 90.170,61.094 83.592,61.094 81.559,67.350 86.881,71.216 "/>
<polygon points="100.813,73.606 98.780,67.350 92.203,67.350 90.170,73.606 95.492,77.472 "/>
<polygon points="131.966,83.728 129.933,77.472 123.356,77.472 121.323,83.728 126.644,87.595 "/>
<polygon points="128.677,73.606 126.644,67.350 120.067,67.350 118.034,73.606 123.356,77.472 "/>
<polygon points="118.034,73.606 116.001,67.350 109.424,67.350 107.391,73.606 112.712,77.472 "/>
<polygon points="114.745,83.728 112.712,77.472 106.135,77.472 104.102,83.728 109.424,87.595 "/>
<polygon points="123.356,89.984 121.323,83.728 114.745,83.728 112.712,89.984 118.034,93.850 "/>
<polygon points="131.966,136.729 129.933,130.473 123.356,130.473 121.323,136.729 126.644,140.595 "/>
<polygon points="128.677,126.607 126.644,120.351 120.067,120.351 118.034,126.607 123.356,130.473 "/>
<polygon points="118.034,126.607 116.001,120.351 109.424,120.351 107.391,126.607 112.712,130.473 "/>
<polygon points="114.745,136.729 112.712,130.473 106.135,130.473 104.102,136.729 109.424,140.595 "/>
<polygon points="123.356,142.985 121.323,136.729 114.745,136.729 112.712,142.985 118.034,146.851 "/>
<polygon points="123.356,110.228 121.323,103.973 114.745,103.973 112.712,110.228 118.034,114.095 "/>
<polygon points="120.067,100.106 118.034,93.850 111.456,93.850 109.424,100.106 114.745,103.973 "/>
<polygon points="109.424,100.106 107.391,93.850 100.813,93.850 98.780,100.106 104.102,103.973 "/>
<polygon points="106.135,110.228 104.102,103.973 97.524,103.973 95.492,110.228 100.813,114.095 "/>
<polygon points="114.745,116.484 112.712,110.228 106.135,110.228 104.102,116.484 109.424,120.351 "/>
<polygon points="95.492,110.228 93.459,103.973 86.881,103.973 84.848,110.228 90.170,114.095 "/>
<polygon points="92.203,100.106 90.170,93.850 83.592,93.850 81.559,100.106 86.881,103.973 "/>
<polygon points="81.559,100.106 79.527,93.850 72.949,93.850 70.916,100.106 76.238,103.973 "/>
<polygon points="78.271,110.228 76.238,103.973 69.660,103.973 67.627,110.228 72.949,114.095 "/>
<polygon points="86.881,116.484 84.848,110.228 78.271,110.228 76.238,116.484 81.559,120.351 "/>
<polygon points="86.881,136.729 84.848,130.473 78.271,130.473 76.238,136.729 81.559,140.595 "/>
<polygon points="83.592,126.607 81.559,120.351 74.982,120.351 72.949,126.607 78.271,130.473 "/>
<polygon points="72.949,126.607 70.916,120.351 64.339,120.351 62.306,126.607 67.627,130.473 "/>
<polygon points="69.660,136.729 67.627,130.473 61.050,130.473 59.017,136.729 64.339,140.595 "/>
<polygon points="78.271,142.985 76.238,136.729 69.660,136.729 67.627,142.985 72.949,146.851 "/>
<polygon points="109.424,153.107 107.391,146.851 100.813,146.851 98.780,153.107 104.102,156.973 "/>
<polygon points="106.135,142.985 104.102,136.729 97.524,136.729 95.492,142.985 100.813,146.851 "/>
<polygon points="95.492,142.985 93.459,136.729 86.881,136.729 84.848,142.985 90.170,146.851 "/>
<polygon points="92.203,153.107 90.170,146.851 83.592,146.851 81.559,153.107 86.881,156.973 "/>
<polygon points="100.813,159.363 98.780,153.107 92.203,153.107 90.170,159.363 95.492,163.229 "/>
<polygon points="190.983,179.607 188.950,173.351 182.373,173.351 180.340,179.607 185.661,183.473 "/>
<polygon points="187.694,169.485 185.661,163.229 179.084,163.229 177.051,169.485 182.373,173.351 "/>
<polygon points="177.051,169.485 175.018,163.229 168.441,163.229 166.408,169.485 171.729,173.351 "/>
<polygon points="173.762,179.607 171.729,173.351 165.152,173.351 163.119,179.607 168.441,183.473 "/>
<polygon points="182.373,185.863 180.340,179.607 173.762,179.607 171.729,185.863 177.051,189.729 "/>
<polygon points="182.373,153.107 180.340,146.851 173.762,146.851 171.729,153.107 177.051,156.973 "/>
<polygon points="179.084,142.985 177.051,136.729 170.473,136.729 168.441,142.985 173.762,146.851 "/>
<polygon points="168.441,142.985 166.408,136.729 159.830,136.729 157.797,142.985 163.119,146.851 "/>
<polygon points="165.152,153.107 163.119,146.851 156.541,146.851 154.508,153.107 159.830,156.973 "/>
<polygon points="173.762,159.363 171.729,153.107 165.152,153.107 163.119,159.363 168.441,163.229 "/>
<polygon points="154.508,153.107 152.476,146.851 145.898,146.851 143.865,153.107 149.187,156.973 "/>
<polygon points="151.220,142.985 149.187,136.729 142.609,136.729 140.576,142.985 145.898,146.851 "/>
<polygon points="140.576,142.985 138.544,136.729 131.966,136.729 129.933,142.985 135.255,146.851 "/>
<polygon points="137.288,153.107 135.255,146.851 128.677,146.851 126.644,153.107 131.966,156.973 "/>
<polygon points="145.898,159.363 143.865,153.107 137.288,153.107 135.255,159.363 140.576,163.229 "/>
<polygon points="145.898,179.607 143.865,173.351 137.288,173.351 135.255,179.607 140.576,183.473 "/>
<polygon points="142.609,169.485 140.576,163.229 133.999,163.229 131.966,169.485 137.288,173.351 "/>
<polygon points="131.966,169.485 129.933,163.229 123.356,163.229 121.323,169.485 126.644,173.351 "/>
<polygon points="128.677,179.607 126.644,173.351 120.067,173.351 118.034,179.607 123.356,183.473 "/>
<polygon points="137.288,185.863 135.255,179.607 128.677,179.607 126.644,185.863 131.966,189.729 "/>
<polygon points="168.441,195.985 166.408,189.729 159.830,189.729 157.797,195.985 163.119,199.852 "/>
<polygon points="165.152,185.863 163.119,179.607 156.541,179.607 154.508,185.863 159.830,189.729 "/>
<polygon points="154.508,185.863 152.476,179.607 145.898,179.607 143.865,185.863 149.187,189.729 "/>
<polygon points="151.220,195.985 149.187,189.729 142.609,189.729 140.576,195.985 145.898,199.852 "/>
<polygon points="159.830,202.241 157.797,195.985 151.220,195.985 149.187,202.241 154.508,206.107 "/>
<polygon points="190.983,318.364 188.950,312.109 182.373,312.109 180.340,318.364 185.661,322.231 "/>
<polygon points="187.694,308.242 185.661,301.986 179.084,301.986 177.051,308.242 182.373,312.109 "/>
<polygon points="177.051,308.242 175.018,301.986 168.441,301.986 166.408,308.242 171.729,312.109 "/>
<polygon points="173.762,318.364 171.729,312.109 165.152,312.109 163.119,318.364 168.441,322.231 "/>
<polygon points="182.373,324.620 180.340,318.364 173.762,318.364 171.729,324.620 177.051,328.487 "/>
<polygon points="182.373,291.864 180.340,285.608 173.762,285.608 171.729,291.864 177.051,295.730 "/>
<polygon points="179.084,281.742 177.051,275.486 170.473,275.486 168.441,281.742 173.762,285.608 "/>
<polygon points="168.441,281.742 166.408,275.486 159.830,275.486 157.797,281.742 163.119,285.608 "/>
<polygon points="165.152,291.864 163.119,285.608 156.541,285.608 154.508,291.864 159.830,295.730 "/>
<polygon points="173.762,298.120 171.729,291.864 165.152,291.864 163.119,298.120 168.441,301.986 "/>
<polygon points="154.508,291.864 152.476,285.608 145.898,285.608 143.865,291.864 149.187,295.730 "/>
<polygon points="151.220,281.742 149.187,275.486 142.609,275.486 140.576,281.742 145.898,285.608 "/>
<polygon points="140.576,281.742 138.544,275.486 131.966,275.486 129.933,281.742 135.255,285.608 "/>
<polygon points="137.288,291.864 135.255,285.608 128.677,285.608 126.644,291.864 131.966,295.730 "/>
<polygon points="145.898,298.120 143.865,291.864 137.288,291.864 135.255,298.120 140.576,301.986 "/>
<polygon points="145.898,318.364 143.865,312.109 137.288,312.109 135.255,318.364 140.576,322.231 "/>
<polygon points="142.609,308.242 140.576,301.986 133.999,301.986 131.966,308.242 137.288,312.109 "/>
<polygon points="131.966,308.242 129.933,301.986 123.356,301.986 121.323,308.242 126.644,312.109 "/>
<polygon points="128.677,318.364 126.644,312.109 120.067,312.109 118.034,318.364 123.356,322.231 "/>
<polygon points="137.288,324.620 135.255,318.364 128.677,318.364 126.644,324.620 131.966,328.487 "/>
<polygon points="168.441,334.742 166.408,328.487 159.830,328.487 157.797,334.742 163.119,338.609 "/>
<polygon points="165.152,324.620 163.119,318.364 156.541,318.364 154.508,324.620 159.830,328.487 "/>
<polygon points="154.508,324.620 152.476,318.364 145.898,318.364 143.865,324.620 149.187,328.487 "/>
<polygon points="151.220,334.742 149.187,328.487 142.609,328.487 140.576,334.742 145.898,338.609 "/>
<polygon points="159.830,340.998 157.797,334.742 151.220,334.742 149.187,340.998 154.508,344.865 "/>
<polygon points="168.441,248.986 166.408,242.730 159.830,242.730 157.797,248.986 163.119,252.852 "/>
<polygon points="165.152,238.864 163.119,232.608 156.541,232.608 154.508,238.864 159.830,242.730 "/>
<polygon points="154.508,238.864 152.476,232.608 145.898,232.608 143.865,238.864 149.187,242.730 "/>
<polygon points="151.220,248.986 149.187,242.730 142.609,242.730 140.576,248.986 145.898,252.852 "/>
<polygon points="159.830,255.242 157.797,248.986 151.220,248.986 149.187,255.242 154.508,259.108 "/>
<polygon points="159.830,222.485 157.797,216.230 151.220,216.230 149.187,222.485 154.508,226.352 "/>
<polygon points="156.541,212.363 154.508,206.107 147.931,206.107 145.898,212.363 151.220,216.230 "/>
<polygon points="145.898,212.363 143.865,206.107 137.288,206.107 135.255,212.363 140.576,216.230 "/>
<polygon points="142.609,222.485 140.576,216.230 133.999,216.230 131.966,222.485 137.288,226.352 "/>
<polygon points="151.220,228.741 149.187,222.485 142.609,222.485 140.576,228.741 145.898,232.608 "/>
<polygon points="131.966,222.485 129.933,216.230 123.356,216.230 121.323,222.485 126.644,226.352 "/>
<polygon points="128.677,212.363 126.644,206.107 120.067,206.107 118.034,212.363 123.356,216.230 "/>
<polygon points="118.034,212.363 116.001,206.107 109.424,206.107 107.391,212.363 112.712,216.230 "/>
<polygon points="114.745,222.485 112.712,216.230 106.135,216.230 104.102,222.485 109.424,226.352 "/>
<polygon points="123.356,228.741 121.323,222.485 114.745,222.485 112.712,228.741 118.034,232.608 "/>
<polygon points="123.356,248.986 121.323,242.730 114.745,242.730 112.712,248.986 118.034,252.852 "/>
<polygon points="120.067,238.864 118.034,232.608 111.456,232.608 109.424,238.864 114.745,242.730 "/>
<polygon points="109.424,238.864 107.391,232.608 100.813,232.608 98.780,238.864 104.102,242.730 "/>
<polygon points="106.135,248.986 104.102,242.730 97.524,242.730 95.492,248.986 100.813,252.852 "/>
<polygon points="114.745,255.242 112.712,248.986 106.135,248.986 104.102,255.242 109.424,259.108 "/>
<polygon points="145.898,265.364 143.865,259.108 137.288,259.108 135.255,265.364 140.576,269.230 "/>
<polygon points="142.609,255.242 140.576,248.986 133.999,248.986 131.966,255.242 137.288,259.108 "/>
<polygon points="131.966,255.242 129.933,248.986 123.356,248.986 121.323,255.242 126.644,259.108 "/>
<polygon points="128.677,265.364 126.644,259.108 120.067,259.108 118.034,265.364 123.356,269.230 "/>
<polygon points="137.288,271.620 135.255,265.364 128.677,265.364 126.644,271.620 131.966,275.486 "/>
<polygon points="95.492,248.986 93.459,242.730 86.881,242.730 84.848,248.986 90.170,252.852 "/>
<polygon points="92.203,238.864 90.170,232.608 83.592,232.608 81.559,238.864 86.881,242.730 "/>
<polygon points="81.559,238.864 79.527,232.608 72.949,232.608 70.916,238.864 76.238,242.730 "/>
<polygon points="78.271,248.986 76.238,242.730 69.660,242.730 67.627,248.986 72.949,252.852 "/>
<polygon points="86.881,255.242 84.848,248.986 78.271,248.986 76.238,255.242 81.559,259.108 "/>
<polygon points="86.881,222.485 84.848,216.230 78.271,216.230 76.238,222.485 81.559,226.352 "/>
<polygon points="83.592,212.363 81.559,206.107 74.982,206.107 72.949,212.363 78.271,216.230 "/>
<polygon points="72.949,212.363 70.916,206.107 64.339,206.107 62.306,212.363 67.627,216.230 "/>
<polygon points="69.660,222.485 67.627,216.230 61.050,216.230 59.017,222.485 64.339,226.352 "/>
<polygon points="78.271,228.741 76.238,222.485 69.660,222.485 67.627,228.741 72.949,232.608 "/>
<polygon points="59.017,222.485 56.984,216.230 50.407,216.230 48.374,222.485 53.695,226.352 "/>
<polygon points="55.728,212.363 53.695,206.107 47.118,206.107 45.085,212.363 50.407,216.230 "/>
<polygon points="45.085,212.363 43.052,206.107 36.475,206.107 34.442,212.363 39.763,216.230 "/>
<polygon points="41.796,222.485 39.763,216.230 33.186,216.230 31.153,222.485 36.475,226.352 "/>
<polygon points="50.407,228.741 48.374,222.485 41.796,222.485 39.763,228.741 45.085,232.608 "/>
<polygon points="50.407,248.986 48.374,242.730 41.796,242.730 39.763,248.986 45.085,252.852 "/>
<polygon points="47.118,238.864 45.085,232.608 38.507,232.608 36.475,238.864 41.796,242.730 "/>
<polygon points="36.475,238.864 34.442,232.608 27.864,232.608 25.831,238.864 31.153,242.730 "/>
<polygon points="33.186,248.986 31.153,242.730 24.575,242.730 22.542,248.986 27.864,252.852 "/>
<polygon points="41.796,255.242 39.763,248.986 33.186,248.986 31.153,255.242 36.475,259.108 "/>
<polygon points="72.949,265.364 70.916,259.108 64.339,259.108 62.306,265.364 67.627,269.230 "/>
<polygon points="69.660,255.242 67.627,248.986 61.050,248.986 59.017,255.242 64.339,259.108 "/>
<polygon points="59.017,255.242 56.984,248.986 50.407,248.986 48.374,255.242 53.695,259.108 "/>
<polygon points="55.728,265.364 53.695,259.108 47.118,259.108 45.085,265.364 50.407,269.230 "/>
<polygon points="64.339,271.620 62.306,265.364 55.728,265.364 53.695,271.620 59.017,275.486 "/>
<polygon points="72.949,318.364 70.916,312.109 64.339,312.109 62.306,318.364 67.627,322.231 "/>
<polygon points="69.660,308.242 67.627,301.986 61.050,301.986 59.017,308.242 64.339,312.109 "/>
<polygon points="59.017,308.242 56.984,301.986 50.407,301.986 48.374,308.242 53.695,312.109 "/>
<polygon points="55.728,318.364 53.695,312.109 47.118,312.109 45.085,318.364 50.407,322.231 "/>
<polygon points="64.339,324.620 62.306,318.364 55.728,318.364 53.695,324.620 59.017,328.487 "/>
<polygon points="64.339,291.864 62.306,285.608 55.728,285.608 53.695,291.864 59.017,295.730 "/>
<polygon points="61.050,281.742 59.017,275.486 52.439,275.486 50.407,281.742 55.728,285.608 "/>
<polygon points="50.407,281.742 48.374,275.486 41.796,275.486 39.763,281.742 45.085,285.608 "/>
<polygon points="47.118,291.864 45.085,285.608 38.507,285.608 36.475,291.864 41.796,295.730 "/>
<polygon points="55.728,298.120 53.695,291.864 47.118,291.864 45.085,298.120 50.407,301.986 "/>
<polygon points="36.475,291.864 34.442,285.608 27.864,285.608 25.831,291.864 31.153,295.730 "/>
<polygon points="33.186,281.742 31.153,275.486 24.575,275.486 22.542,281.742 27.864,285.608 "/>
<polygon points="22.542,281.742 20.510,275.486 13.932,275.486 11.899,281.742 17.221,285.608 "/>
<polygon points="19.254,291.864 17.221,285.608 10.643,285.608 8.610,291.864 13.932,295.730 "/>
<polygon points="27.864,298.120 25.831,291.864 19.254,291.864 17.221,298.120 22.542,301.986 "/>
<polygon points="27.864,318.364 25.831,312.109 19.254,312.109 17.221,318.364 22.542,322.231 "/>
<polygon points="24.575,308.242 22.542,301.986 15.965,301.986 13.932,308.242 19.254,312.109 "/>
<polygon points="13.932,308.242 11.899,301.986 5.322,301.986 3.289,308.242 8.610,312.109 "/>
<polygon points="10.643,318.364 8.610,312.109 2.033,312.109 -0.000,318.364 5.322,322.231 "/>
<polygon points="19.254,324.620 17.221,318.364 10.643,318.364 8.610,324.620 13.932,328.487 "/>
<polygon points="50.407,334.742 48.374,328.487 41.796,328.487 39.763,334.742 45.085,338.609 "/>
<polygon points="47.118,324.620 45.085,318.364 38.507,318.364 36.475,324.620 41.796,328.487 "/>
<polygon points="36.475,324.620 34.442,318.364 27.864,318.364 25.831,324.620 31.153,328.487 "/>
<polygon points="33.186,334.742 31.153,328.487 24.575,328.487 22.542,334.742 27.864,338.609 "/>
<polygon points="41.796,340.998 39.763,334.742 33.186,334.742 31.153,340.998 36.475,344.865 "/>
<polygon points="131.966,361.243 129.933,354.987 123.356,354.987 121.323,361.243 126.644,365.109 "/>
<polygon points="128.677,351.121 126.644,344.865 120.067,344.865 118.034,351.121 123.356,354.987 "/>
<polygon points="118.034,351.121 116.001,344.865 109.424,344.865 107.391,351.121 112.712,354.987 "/>
<polygon points="114.745,361.243 112.712,354.987 106.135,354.987 104.102,361.243 109.424,365.109 "/>
<polygon points="123.356,367.499 121.323,361.243 114.745,361.243 112.712,367.499 118.034,371.365 "/>
<polygon points="123.356,334.742 121.323,328.487 114.745,328.487 112.712,334.742 118.034,338.609 "/>
<polygon points="120.067,324.620 118.034,318.364 111.456,318.364 109.424,324.620 114.745,328.487 "/>
<polygon points="109.424,324.620 107.391,318.364 100.813,318.364 98.780,324.620 104.102,328.487 "/>
<polygon points="106.135,334.742 104.102,328.487 97.524,328.487 95.492,334.742 100.813,338.609 "/>
<polygon points="114.745,340.998 112.712,334.742 106.135,334.742 104.102,340.998 109.424,344.865 "/>
<polygon points="95.492,334.742 93.459,328.487 86.881,328.487 84.848,334.742 90.170,338.609 "/>
<polygon points="92.203,324.620 90.170,318.364 83.592,318.364 81.559,324.620 86.881,328.487 "/>
<polygon points="81.559,324.620 79.527,318.364 72.949,318.364 70.916,324.620 76.238,328.487 "/>
<polygon points="78.271,334.742 76.238,328.487 69.660,328.487 67.627,334.742 72.949,338.609 "/>
<polygon points="86.881,340.998 84.848,334.742 78.271,334.742 76.238,340.998 81.559,344.865 "/>
<polygon points="86.881,361.243 84.848,354.987 78.271,354.987 76.238,361.243 81.559,365.109 "/>
<polygon points="83.592,351.121 81.559,344.865 74.982,344.865 72.949,351.121 78.271,354.987 "/>
<polygon points="72.949,351.121 70.916,344.865 64.339,344.865 62.306,351.121 67.627,354.987 "/>
<polygon points="69.660,361.243 67.627,354.987 61.050,354.987 59.017,361.243 64.339,365.109 "/>
<polygon points="78.271,367.499 76.238,361.243 69.660,361.243 67.627,367.499 72.949,371.365 "/>
<polygon points="109.424,377.621 107.391,371.365 100.813,371.365 98.780,377.621 104.102,381.487 "/>
<polygon points="106.135,367.499 104.102,361.243 97.524,361.243 95.492,367.499 100.813,371.365 "/>
<polygon points="95.492,367.499 93.459,361.243 86.881,361.243 84.848,367.499 90.170,371.365 "/>
<polygon points="92.203,377.621 90.170,371.365 83.592,371.365 81.559,377.621 86.881,381.487 "/>
<polygon points="100.813,383.877 98.780,377.621 92.203,377.621 90.170,383.877 95.492,387.743 "/>
<polygon points="345.492,430.621 343.459,424.365 336.881,424.365 334.848,430.621 340.170,434.488 "/>
<polygon points="342.203,420.499 340.170,414.243 333.592,414.243 331.559,420.499 336.881,424.365 "/>
<polygon points="331.559,420.499 329.527,414.243 322.949,414.243 320.916,420.499 326.238,424.365 "/>
<polygon points="328.271,430.621 326.238,424.365 319.660,424.365 317.627,430.621 322.949,434.488 "/>
<polygon points="336.881,436.877 334.848,430.621 328.271,430.621 326.238,436.877 331.559,440.744 "/>
<polygon points="336.881,404.121 334.848,397.865 328.271,397.865 326.238,404.121 331.559,407.987 "/>
<polygon points="333.592,393.999 331.559,387.743 324.982,387.743 322.949,393.999 328.271,397.865 "/>
<polygon points="322.949,393.999 320.916,387.743 314.339,387.743 312.306,393.999 317.627,397.865 "/>
<polygon points="319.660,404.121 317.627,397.865 311.050,397.865 309.017,404.121 314.339,407.987 "/>
<polygon points="328.271,410.377 326.238,404.121 319.660,404.121 317.627,410.377 322.949,414.243 "/>
<polygon points="309.017,404.121 306.984,397.865 300.407,397.865 298.374,404.121 303.695,407.987 "/>
<polygon points="305.728,393.999 303.695,387.743 297.118,387.743 295.085,393.999 300.407,397.865 "/>
<polygon points="295.085,393.999 293.052,387.743 286.475,387.743 284.442,393.999 289.763,397.865 "/>
<polygon points="291.796,404.121 289.763,397.865 283.186,397.865 281.153,404.121 286.475,407.987 "/>
<polygon points="300.407,410.377 298.374,404.121 291.796,404.121 289.763,410.377 295.085,414.243 "/>
<polygon points="300.407,430.621 298.374,424.365 291.796,424.365 289.763,430.621 295.085,434.488 "/>
<polygon points="297.118,420.499 295.085,414.243 288.507,414.243 286.475,420.499 291.796,424.365 "/>
<polygon points="286.475,420.499 284.442,414.243 277.864,414.243 275.831,420.499 281.153,424.365 "/>
<polygon points="283.186,430.621 281.153,424.365 274.575,424.365 272.542,430.621 277.864,434.488 "/>
<polygon points="291.796,436.877 289.763,430.621 283.186,430.621 281.153,436.877 286.475,440.744 "/>
<polygon points="322.949,446.999 320.916,440.744 314.339,440.744 312.306,446.999 317.627,450.866 "/>
<polygon points="319.660,436.877 317.627,430.621 311.050,430.621 309.017,436.877 314.339,440.744 "/>
<polygon points="309.017,436.877 306.984,430.621 300.407,430.621 298.374,436.877 303.695,440.744 "/>
<polygon points="305.728,446.999 303.695,440.744 297.118,440.744 295.085,446.999 300.407,450.866 "/>
<polygon points="314.339,453.255 312.306,446.999 305.728,446.999 303.695,453.255 309.017,457.122 "/>
<polygon points="322.949,361.243 320.916,354.987 314.339,354.987 312.306,361.243 317.627,365.109 "/>
<polygon points="319.660,351.121 317.627,344.865 311.050,344.865 309.017,351.121 314.339,354.987 "/>
<polygon points="309.017,351.121 306.984,344.865 300.407,344.865 298.374,351.121 303.695,354.987 "/>
<polygon points="305.728,361.243 303.695,354.987 297.118,354.987 295.085,361.243 300.407,365.109 "/>
<polygon points="314.339,367.499 312.306,361.243 305.728,361.243 303.695,367.499 309.017,371.365 "/>
<polygon points="314.339,334.742 312.306,328.487 305.728,328.487 303.695,334.742 309.017,338.609 "/>
<polygon points="311.050,324.620 309.017,318.364 302.439,318.364 300.407,324.620 305.728,328.487 "/>
<polygon points="300.407,324.620 298.374,318.364 291.796,318.364 289.763,324.620 295.085,328.487 "/>
<polygon points="297.118,334.742 295.085,328.487 288.507,328.487 286.475,334.742 291.796,338.609 "/>
<polygon points="305.728,340.998 303.695,334.742 297.118,334.742 295.085,340.998 300.407,344.865 "/>
<polygon points="286.475,334.742 284.442,328.487 277.864,328.487 275.831,334.742 281.153,338.609 "/>
<polygon points="283.186,324.620 281.153,318.364 274.575,318.364 272.542,324.620 277.864,328.487 "/>
<polygon points="272.542,324.620 270.510,318.364 263.932,318.364 261.899,324.620 267.221,328.487 "/>
<polygon points="269.254,334.742 267.221,328.487 260.643,328.487 258.610,334.742 263.932,338.609 "/>
<polygon points="277.864,340.998 275.831,334.742 269.254,334.742 267.221,340.998 272.542,344.865 "/>
<polygon points="277.864,361.243 275.831,354.987 269.254,354.987 267.221,361.243 272.542,365.109 "/>
<polygon points="274.575,351.121 272.542,344.865 265.965,344.865 263.932,351.121 269.254,354.987 "/>
<polygon points="263.932,351.121 261.899,344.865 255.322,344.865 253.289,351.121 258.610,354.987 "/>
<polygon points="260.643,361.243 258.610,354.987 252.033,354.987 250.000,361.243 255.322,365.109 "/>
<polygon points="269.254,367.499 267.221,361.243 260.643,361.243 258.610,367.499 263.932,371.365 "/>
<polygon points="300.407,377.621 298.374,371.365 291.796,371.365 289.763,377.621 295.085,381.487 "/>
<polygon points="297.118,367.499 295.085,361.243 288.507,361.243 286.475,367.499 291.796,371.365 "/>
<polygon points="286.475,367.499 284.442,361.243 277.864,361.243 275.831,367.499 281.153,371.365 "/>
<polygon points="283.186,377.621 281.153,371.365 274.575,371.365 272.542,377.621 277.864,381.487 "/>
<polygon points="291.796,383.877 289.763,377.621 283.186,377.621 281.153,383.877 286.475,387.743 "/>
<polygon points="250.000,361.243 247.967,354.987 241.390,354.987 239.357,361.243 244.678,365.109 "/>
<polygon points="246.711,351.121 244.678,344.865 238.101,344.865 236.068,351.121 241.390,354.987 "/>
<polygon points="236.068,351.121 234.035,344.865 227.458,344.865 225.425,351.121 230.746,354.987 "/>
<polygon points="232.779,361.243 230.746,354.987 224.169,354.987 222.136,361.243 227.458,365.109 "/>
<polygon points="241.390,367.499 239.357,361.243 232.779,361.243 230.746,367.499 236.068,371.365 "/>
<polygon points="241.390,334.742 239.357,328.487 232.779,328.487 230.746,334.742 236.068,338.609 "/>
<polygon points="238.101,324.620 236.068,318.364 229.490,318.364 227.458,324.620 232.779,328.487 "/>
<polygon points="227.458,324.620 225.425,318.364 218.847,318.364 216.814,324.620 222.136,328.487 "/>
<polygon points="224.169,334.742 222.136,328.487 215.558,328.487 213.525,334.742 218.847,338.609 "/>
<polygon points="232.779,340.998 230.746,334.742 224.169,334.742 222.136,340.998 227.458,344.865 "/>
<polygon points="213.525,334.742 211.493,328.487 204.915,328.487 202.882,334.742 208.204,338.609 "/>
<polygon points="210.237,324.620 208.204,318.364 201.626,318.364 199.593,324.620 204.915,328.487 "/>
<polygon points="199.593,324.620 197.561,318.364 190.983,318.364 188.950,324.620 194.272,328.487 "/>
<polygon points="196.305,334.742 194.272,328.487 187.694,328.487 185.661,334.742 190.983,338.609 "/>
<polygon points="204.915,340.998 202.882,334.742 196.305,334.742 194.272,340.998 199.593,344.865 "/>
<polygon points="204.915,361.243 202.882,354.987 196.305,354.987 194.272,361.243 199.593,365.109 "/>
<polygon points="201.626,351.121 199.593,344.865 193.016,344.865 190.983,351.121 196.305,354.987 "/>
<polygon points="190.983,351.121 188.950,344.865 182.373,344.865 180.340,351.121 185.661,354.987 "/>
<polygon points="187.694,361.243 185.661,354.987 179.084,354.987 177.051,361.243 182.373,365.109 "/>
<polygon points="196.305,367.499 194.272,361.243 187.694,361.243 185.661,367.499 190.983,371.365 "/>
<polygon points="227.458,377.621 225.425,371.365 218.847,371.365 216.814,377.621 222.136,381.487 "/>
<polygon points="224.169,367.499 222.136,361.243 215.558,361.243 213.525,367.499 218.847,371.365 "/>
<polygon points="213.525,367.499 211.493,361.243 204.915,361.243 202.882,367.499 208.204,371.365 "/>
<polygon points="210.237,377.621 208.204,371.365 201.626,371.365 199.593,377.621 204.915,381.487 "/>
<polygon points="218.847,383.877 216.814,377.621 210.237,377.621 208.204,383.877 213.525,387.743 "/>
<polygon points="227.458,430.621 225.425,424.365 218.847,424.365 216.814,430.621 222.136,434.488 "/>
<polygon points="224.169,420.499 222.136,414.243 215.558,414.243 213.525,420.499 218.847,424.365 "/>
<polygon points="213.525,420.499 211.493,414.243 204.915,414.243 202.882,420.499 208.204,424.365 "/>
<polygon points="210.237,430.621 208.204,424.365 201.626,424.365 199.593,430.621 204.915,434.488 "/>
<polygon points="218.847,436.877 216.814,430.621 210.237,430.621 208.204,436.877 213.525,440.744 "/>
<polygon points="218.847,404.121 216.814,397.865 210.237,397.865 208.204,404.121 213.525,407.987 "/>
<polygon points="215.558,393.999 213.525,387.743 206.948,387.743 204.915,393.999 210.237,397.865 "/>
<polygon points="204.915,393.999 202.882,387.743 196.305,387.743 194.272,393.999 199.593,397.865 "/>
<polygon points="201.626,404.121 199.593,397.865 193.016,397.865 190.983,404.121 196.305,407.987 "/>
<polygon points="210.237,410.377 208.204,404.121 201.626,404.121 199.593,410.377 204.915,414.243 "/>
<polygon points="190.983,404.121 188.950,397.865 182.373,397.865 180.340,404.121 185.661,407.987 "/>
<polygon points="187.694,393.999 185.661,387.743 179.084,387.743 177.051,393.999 182.373,397.865 "/>
<polygon points="177.051,393.999 175.018,387.743 168.441,387.743 166.408,393.999 171.729,397.865 "/>
<polygon points="173.762,404.121 171.729,397.865 165.152,397.865 163.119,404.121 168.441,407.987 "/>
<polygon points="182.373,410.377 180.340,404.121 173.762,404.121 171.729,410.377 177.051,414.243 "/>
<polygon points="182.373,430.621 180.340,424.365 173.762,424.365 171.729,430.621 177.051,434.488 "/>
<polygon points="179.084,420.499 177.051,414.243 170.473,414.243 168.441,420.499 173.762,424.365 "/>
<polygon points="168.441,420.499 166.408,414.243 159.830,414.243 157.797,420.499 163.119,424.365 "/>
<polygon points="165.152,430.621 163.119,424.365 156.541,424.365 154.508,430.621 159.830,434.488 "/>
<polygon points="173.762,436.877 171.729,430.621 165.152,430.621 163.119,436.877 168.441,440.744 "/>
<polygon points="204.915,446.999 202.882,440.744 196.305,440.744 194.272,446.999 199.593,450.866 "/>
<polygon points="201.626,436.877 199.593,430.621 193.016,430.621 190.983,436.877 196.305,440.744 "/>
<polygon points="190.983,436.877 188.950,430.621 182.373,430.621 180.340,436.877 185.661,440.744 "/>
<polygon points="187.694,446.999 185.661,440.744 179.084,440.744 177.051,446.999 182.373,450.866 "/>
<polygon points="196.305,453.255 194.272,446.999 187.694,446.999 185.661,453.255 190.983,457.122 "/>
<polygon points="286.475,473.500 284.442,467.244 277.864,467.244 275.831,473.500 281.153,477.366 "/>
<polygon points="283.186,463.378 281.153,457.122 274.575,457.122 272.542,463.378 277.864,467.244 "/>
<polygon points="272.542,463.378 270.510,457.122 263.932,457.122 261.899,463.378 267.221,467.244 "/>
<polygon points="269.254,473.500 267.221,467.244 260.643,467.244 258.610,473.500 263.932,477.366 "/>
<polygon points="277.864,479.756 275.831,473.500 269.254,473.500 267.221,479.756 272.542,483.622 "/>
<polygon points="277.864,446.999 275.831,440.744 269.254,440.744 267.221,446.999 272.542,450.866 "/>
<polygon points="274.575,436.877 272.542,430.621 265.965,430.621 263.932,436.877 269.254,440.744 "/>
<polygon points="263.932,436.877 261.899,430.621 255.322,430.621 253.289,436.877 258.610,440.744 "/>
<polygon points="260.643,446.999 258.610,440.744 252.033,440.744 250.000,446.999 255.322,450.866 "/>
<polygon points="269.254,453.255 267.221,446.999 260.643,446.999 258.610,453.255 263.932,457.122 "/>
<polygon points="250.000,446.999 247.967,440.744 241.390,440.744 239.357,446.999 244.678,450.866 "/>
<polygon points="246.711,436.877 244.678,430.621 238.101,430.621 236.068,436.877 241.390,440.744 "/>
<polygon points="236.068,436.877 234.035,430.621 227.458,430.621 225.425,436.877 230.746,440.744 "/>
<polygon points="232.779,446.999 230.746,440.744 224.169,440.744 222.136,446.999 227.458,450.866 "/>
<polygon points="241.390,453.255 239.357,446.999 232.779,446.999 230.746,453.255 236.068,457.122 "/>
<polygon points="241.390,473.500 239.357,467.244 232.779,467.244 230.746,473.500 236.068,477.366 "/>
<polygon points="238.101,463.378 236.068,457.122 229.490,457.122 227.458,463.378 232.779,467.244 "/>
<polygon points="227.458,463.378 225.425,457.122 218.847,457.122 216.814,463.378 222.136,467.244 "/>
<polygon points="224.169,473.500 222.136,467.244 215.558,467.244 213.525,473.500 218.847,477.366 "/>
<polygon points="232.779,479.756 230.746,473.500 224.169,473.500 222.136,479.756 227.458,483.622 "/>
<polygon points="263.932,489.878 261.899,483.622 255.322,483.622 253.289,489.878 258.610,493.744 "/>
<polygon points="260.643,479.756 258.610,473.500 252.033,473.500 250.000,479.756 255.322,483.622 "/>
<polygon points="250.000,479.756 247.967,473.500 241.390,473.500 239.357,479.756 244.678,483.622 "/>
<polygon points="246.711,489.878 244.678,483.622 238.101,483.622 236.068,489.878 241.390,493.744 "/>
<polygon points="255.322,496.134 253.289,489.878 246.711,489.878 244.678,496.134 250.000,500.000 "/>
</svg>
